<svg xmlns="http://www.w3.org/2000/svg" width="18" height="18" viewBox="0 0 18 18" fill="none">
  <g clip-path="url(#clip0_106_2731)">
    <path d="M9.74724 1.54802C9.60686 1.26358 9.31717 1.0835 8.99996 1.0835C8.68276 1.0835 8.39307 1.26358 8.25269 1.54802L6.14506 5.81853L1.43228 6.50334C1.11837 6.54896 0.857581 6.76882 0.75956 7.0705C0.66154 7.37218 0.743287 7.70334 0.970431 7.92475L4.38064 11.2489L3.5756 15.9426C3.52197 16.2553 3.65049 16.5712 3.90711 16.7577C4.16374 16.9441 4.50395 16.9687 4.78472 16.8211L8.99997 14.605L13.2152 16.8211C13.496 16.9687 13.8362 16.9441 14.0928 16.7577C14.3494 16.5712 14.478 16.2553 14.4243 15.9426L13.6193 11.2489L17.0295 7.92475C17.2566 7.70334 17.3384 7.37218 17.2404 7.0705C17.1424 6.76882 16.8816 6.54896 16.5677 6.50334L11.8549 5.81853L9.74724 1.54802Z" fill="#FABD14"/>
  </g>
  <defs>
    <clipPath id="clip0_106_2731">
      <rect width="16.6667" height="16.6667" fill="white" transform="translate(0.666992 0.666748)"/>
    </clipPath>
  </defs>
</svg>