<svg xmlns="http://www.w3.org/2000/svg" width="14" height="14" viewBox="0 0 14 14" fill="none">
  <g clip-path="url(#clip0_106_5204)">
    <path d="M7.5978 1.03813C7.48549 0.81057 7.25373 0.666504 6.99997 0.666504C6.74621 0.666504 6.51445 0.81057 6.40215 1.03813L4.71605 4.45453L0.945821 5.00238C0.694696 5.03887 0.486065 5.21477 0.407648 5.45611C0.329232 5.69745 0.39463 5.96238 0.576345 6.13951L3.30451 8.79881L2.66048 12.5538C2.61758 12.8039 2.72039 13.0567 2.92569 13.2058C3.13099 13.355 3.40316 13.3747 3.62778 13.2566L6.99997 11.4837L10.3722 13.2566C10.5968 13.3747 10.869 13.355 11.0743 13.2058C11.2796 13.0567 11.3824 12.8039 11.3395 12.5538L10.6954 8.79881L13.4236 6.13951C13.6053 5.96238 13.6707 5.69745 13.5923 5.45611C13.5139 5.21477 13.3052 5.03887 13.0541 5.00238L9.28389 4.45453L7.5978 1.03813Z" fill="#FAAD14"/>
  </g>
  <defs>
    <clipPath id="clip0_106_5204">
      <rect width="13.3333" height="13.3333" fill="white" transform="translate(0.333008 0.333252)"/>
    </clipPath>
  </defs>
</svg>